<mxfile host="Electron" modified="2023-11-17T14:56:45.508Z" agent="Mozilla/5.0 (Windows NT 10.0; Win64; x64) AppleWebKit/537.36 (KHTML, like Gecko) draw.io/22.1.2 Chrome/114.0.5735.289 Electron/25.9.4 Safari/537.36" etag="uAvuNoRA2Bh_PQR9zvwD" version="22.1.2" type="device">
  <diagram name="Page-1" id="ySw71Lw4WxtoFAXqtvJl">
    <mxGraphModel dx="1098" dy="988" grid="1" gridSize="10" guides="1" tooltips="1" connect="1" arrows="1" fold="1" page="1" pageScale="1" pageWidth="850" pageHeight="1100" math="0" shadow="0">
      <root>
        <mxCell id="0" />
        <mxCell id="1" parent="0" />
        <mxCell id="uzG-5KlOiOhDZJZoA9nY-3" value="Virtual Server" style="sketch=0;outlineConnect=0;fontColor=#232F3E;gradientColor=none;fillColor=#232F3D;strokeColor=none;dashed=0;verticalLabelPosition=top;verticalAlign=bottom;align=center;html=1;fontSize=12;fontStyle=0;aspect=fixed;pointerEvents=1;shape=mxgraph.aws4.traditional_server;labelPosition=center;" vertex="1" parent="1">
          <mxGeometry x="320" y="300" width="45" height="78" as="geometry" />
        </mxCell>
        <mxCell id="uzG-5KlOiOhDZJZoA9nY-18" value="push" style="edgeStyle=orthogonalEdgeStyle;rounded=0;orthogonalLoop=1;jettySize=auto;html=1;entryX=0.25;entryY=0;entryDx=0;entryDy=0;" edge="1" parent="1" source="uzG-5KlOiOhDZJZoA9nY-4" target="uzG-5KlOiOhDZJZoA9nY-14">
          <mxGeometry x="0.3586" relative="1" as="geometry">
            <mxPoint as="offset" />
          </mxGeometry>
        </mxCell>
        <mxCell id="uzG-5KlOiOhDZJZoA9nY-4" value="Virtual Server" style="sketch=0;outlineConnect=0;fontColor=#232F3E;gradientColor=none;fillColor=#232F3D;strokeColor=none;dashed=0;verticalLabelPosition=top;verticalAlign=bottom;align=center;html=1;fontSize=12;fontStyle=0;aspect=fixed;pointerEvents=1;shape=mxgraph.aws4.traditional_server;labelPosition=center;" vertex="1" parent="1">
          <mxGeometry x="520" y="300" width="45" height="78" as="geometry" />
        </mxCell>
        <mxCell id="uzG-5KlOiOhDZJZoA9nY-19" value="push" style="edgeStyle=orthogonalEdgeStyle;rounded=0;orthogonalLoop=1;jettySize=auto;html=1;entryX=0.75;entryY=0;entryDx=0;entryDy=0;" edge="1" parent="1" source="uzG-5KlOiOhDZJZoA9nY-5" target="uzG-5KlOiOhDZJZoA9nY-14">
          <mxGeometry relative="1" as="geometry" />
        </mxCell>
        <mxCell id="uzG-5KlOiOhDZJZoA9nY-5" value="" style="sketch=0;points=[[0,0,0],[0.25,0,0],[0.5,0,0],[0.75,0,0],[1,0,0],[0,1,0],[0.25,1,0],[0.5,1,0],[0.75,1,0],[1,1,0],[0,0.25,0],[0,0.5,0],[0,0.75,0],[1,0.25,0],[1,0.5,0],[1,0.75,0]];outlineConnect=0;fontColor=#232F3E;fillColor=#ED7100;strokeColor=#ffffff;dashed=0;verticalLabelPosition=bottom;verticalAlign=top;align=center;html=1;fontSize=12;fontStyle=0;aspect=fixed;shape=mxgraph.aws4.resourceIcon;resIcon=mxgraph.aws4.lambda;" vertex="1" parent="1">
          <mxGeometry x="807" y="300" width="78" height="78" as="geometry" />
        </mxCell>
        <mxCell id="uzG-5KlOiOhDZJZoA9nY-10" style="edgeStyle=orthogonalEdgeStyle;rounded=0;orthogonalLoop=1;jettySize=auto;html=1;" edge="1" parent="1" source="uzG-5KlOiOhDZJZoA9nY-6" target="uzG-5KlOiOhDZJZoA9nY-7">
          <mxGeometry relative="1" as="geometry" />
        </mxCell>
        <mxCell id="uzG-5KlOiOhDZJZoA9nY-6" value="" style="shape=image;verticalLabelPosition=bottom;labelBackgroundColor=default;verticalAlign=top;aspect=fixed;imageAspect=0;image=https://brands.home-assistant.io/_/prometheus/logo@2x.png;" vertex="1" parent="1">
          <mxGeometry x="231.66" y="730" width="221.68" height="72.05" as="geometry" />
        </mxCell>
        <mxCell id="uzG-5KlOiOhDZJZoA9nY-8" style="edgeStyle=orthogonalEdgeStyle;rounded=0;orthogonalLoop=1;jettySize=auto;html=1;dashed=1;" edge="1" parent="1" source="uzG-5KlOiOhDZJZoA9nY-7" target="uzG-5KlOiOhDZJZoA9nY-3">
          <mxGeometry relative="1" as="geometry" />
        </mxCell>
        <mxCell id="uzG-5KlOiOhDZJZoA9nY-9" style="edgeStyle=orthogonalEdgeStyle;rounded=0;orthogonalLoop=1;jettySize=auto;html=1;dashed=1;" edge="1" parent="1" source="uzG-5KlOiOhDZJZoA9nY-7" target="uzG-5KlOiOhDZJZoA9nY-4">
          <mxGeometry relative="1" as="geometry">
            <Array as="points">
              <mxPoint x="460" y="539" />
              <mxPoint x="460" y="339" />
            </Array>
          </mxGeometry>
        </mxCell>
        <mxCell id="uzG-5KlOiOhDZJZoA9nY-7" value="Network Load Balancer" style="sketch=0;outlineConnect=0;fontColor=#232F3E;gradientColor=none;fillColor=#8C4FFF;strokeColor=none;dashed=0;verticalLabelPosition=middle;verticalAlign=middle;align=right;html=1;fontSize=12;fontStyle=0;aspect=fixed;pointerEvents=1;shape=mxgraph.aws4.network_load_balancer;labelPosition=left;spacingRight=5;" vertex="1" parent="1">
          <mxGeometry x="303.5" y="500" width="78" height="78" as="geometry" />
        </mxCell>
        <mxCell id="uzG-5KlOiOhDZJZoA9nY-11" value="Private IP" style="text;html=1;align=center;verticalAlign=middle;resizable=0;points=[];autosize=1;strokeColor=none;fillColor=none;fontStyle=1;fontSize=15;fontColor=#FF0000;" vertex="1" parent="1">
          <mxGeometry x="297.5" y="250" width="90" height="30" as="geometry" />
        </mxCell>
        <mxCell id="uzG-5KlOiOhDZJZoA9nY-12" value="Private IP" style="text;html=1;align=center;verticalAlign=middle;resizable=0;points=[];autosize=1;strokeColor=none;fillColor=none;fontStyle=1;fontSize=15;fontColor=#FF0000;" vertex="1" parent="1">
          <mxGeometry x="497.5" y="250" width="90" height="30" as="geometry" />
        </mxCell>
        <mxCell id="uzG-5KlOiOhDZJZoA9nY-13" value="Public IP" style="text;html=1;align=center;verticalAlign=middle;resizable=0;points=[];autosize=1;strokeColor=none;fillColor=none;fontStyle=1;fontSize=15;fontColor=#FF0000;" vertex="1" parent="1">
          <mxGeometry x="190" y="500" width="90" height="30" as="geometry" />
        </mxCell>
        <mxCell id="uzG-5KlOiOhDZJZoA9nY-14" value="" style="shape=image;verticalLabelPosition=bottom;labelBackgroundColor=default;verticalAlign=top;aspect=fixed;imageAspect=0;image=https://brands.home-assistant.io/_/prometheus/logo@2x.png;fontSize=15;" vertex="1" parent="1">
          <mxGeometry x="680" y="730" width="221.68" height="72.05" as="geometry" />
        </mxCell>
        <mxCell id="uzG-5KlOiOhDZJZoA9nY-22" value="Push Gateway" style="text;html=1;align=center;verticalAlign=middle;resizable=0;points=[];autosize=1;strokeColor=none;fillColor=none;fontStyle=3;fontSize=15;fontColor=#FF0000;" vertex="1" parent="1">
          <mxGeometry x="760" y="772.05" width="130" height="30" as="geometry" />
        </mxCell>
      </root>
    </mxGraphModel>
  </diagram>
</mxfile>
